<svg xmlns="http://www.w3.org/2000/svg" xmlns:xlink="http://www.w3.org/1999/xlink" contentStyleType="text/css" height="873px" preserveAspectRatio="none" style="width:642px;height:873px;background:#FFFFFF;" version="1.1" viewBox="0 0 642 873" width="642px" zoomAndPan="magnify"><title>Modelo de Dom&#237;nio</title><defs/><g><text fill="#000000" font-family="sans-serif" font-size="14" font-weight="bold" lengthAdjust="spacing" textLength="129.1035" x="249.7651" y="25.1074">Modelo de Dom&#237;nio</text><!--class User--><g id="elem_User"><rect codeLine="3" fill="#F1F1F1" height="103.8633" id="User" rx="2.5" ry="2.5" style="stroke:#181818;stroke-width:0.5;" width="138.8408" x="140" y="46.6211"/><ellipse cx="190.3911" cy="62.6211" fill="#ADD1B2" rx="11" ry="11" style="stroke:#181818;stroke-width:1.0;"/><path d="M193.1567,58.4961 Q193.313,58.2773 193.5005,58.168 Q193.688,58.0586 193.9067,58.0586 Q194.2817,58.0586 194.5161,58.3242 Q194.7505,58.5742 194.7505,59.1836 L194.7505,60.6367 Q194.7505,61.2461 194.5161,61.5117 Q194.2817,61.7773 193.9067,61.7773 Q193.563,61.7773 193.3599,61.5742 Q193.1567,61.3867 193.0474,60.8711 Q193.0005,60.5117 192.813,60.3242 Q192.4849,59.9492 191.8755,59.7305 Q191.2661,59.5117 190.6411,59.5117 Q189.8755,59.5117 189.2349,59.8398 Q188.6099,60.168 188.1099,60.918 Q187.6255,61.668 187.6255,62.6992 L187.6255,63.793 Q187.6255,65.0273 188.5161,65.8555 Q189.4067,66.668 191.0005,66.668 Q191.938,66.668 192.5942,66.418 Q192.9849,66.2617 193.4067,65.8242 Q193.6724,65.5586 193.813,65.4805 Q193.9692,65.4023 194.1724,65.4023 Q194.5005,65.4023 194.7505,65.668 Q195.0161,65.918 195.0161,66.2617 Q195.0161,66.6055 194.6724,67.0117 Q194.1724,67.5898 193.3755,67.918 Q192.2974,68.3711 191.0005,68.3711 Q189.4849,68.3711 188.2817,67.7461 Q187.2974,67.2461 186.6099,66.1836 Q185.9224,65.1055 185.9224,63.8242 L185.9224,62.668 Q185.9224,61.3398 186.5317,60.1992 Q187.1567,59.043 188.2505,58.4336 Q189.3442,57.8086 190.5786,57.8086 Q191.313,57.8086 191.9536,57.9805 Q192.6099,58.1367 193.1567,58.4961 Z " fill="#000000"/><text fill="#000000" font-family="sans-serif" font-size="14" lengthAdjust="spacing" textLength="29.5586" x="210.8911" y="68.418">User</text><line style="stroke:#181818;stroke-width:0.5;" x1="141" x2="277.8408" y1="78.6211" y2="78.6211"/><ellipse cx="151" cy="93.4316" fill="none" rx="3" ry="3" style="stroke:#038048;stroke-width:1.0;"/><text fill="#000000" font-family="sans-serif" font-size="14" lengthAdjust="spacing" textLength="110.4961" x="160" y="97.7285">username : String</text><ellipse cx="151" cy="112.0527" fill="none" rx="3" ry="3" style="stroke:#038048;stroke-width:1.0;"/><text fill="#000000" font-family="sans-serif" font-size="14" lengthAdjust="spacing" textLength="112.8408" x="160" y="116.3496">isAdmin : Boolean</text><ellipse cx="151" cy="130.6738" fill="none" rx="3" ry="3" style="stroke:#038048;stroke-width:1.0;"/><text fill="#000000" font-family="sans-serif" font-size="14" lengthAdjust="spacing" textLength="89.4893" x="160" y="134.9707">credit : Integer</text><line style="stroke:#181818;stroke-width:0.5;" x1="141" x2="277.8408" y1="142.4844" y2="142.4844"/></g><!--class VirtualServer--><g id="elem_VirtualServer"><rect codeLine="9" fill="#F1F1F1" height="178.3477" id="VirtualServer" rx="2.5" ry="2.5" style="stroke:#181818;stroke-width:0.5;" width="155.9307" x="236.5" y="468.6211"/><ellipse cx="270.8562" cy="484.6211" fill="#ADD1B2" rx="11" ry="11" style="stroke:#181818;stroke-width:1.0;"/><path d="M273.6218,480.4961 Q273.778,480.2773 273.9655,480.168 Q274.153,480.0586 274.3718,480.0586 Q274.7468,480.0586 274.9812,480.3242 Q275.2155,480.5742 275.2155,481.1836 L275.2155,482.6367 Q275.2155,483.2461 274.9812,483.5117 Q274.7468,483.7773 274.3718,483.7773 Q274.028,483.7773 273.8249,483.5742 Q273.6218,483.3867 273.5124,482.8711 Q273.4655,482.5117 273.278,482.3242 Q272.9499,481.9492 272.3405,481.7305 Q271.7312,481.5117 271.1062,481.5117 Q270.3405,481.5117 269.6999,481.8398 Q269.0749,482.168 268.5749,482.918 Q268.0905,483.668 268.0905,484.6992 L268.0905,485.793 Q268.0905,487.0273 268.9812,487.8555 Q269.8718,488.668 271.4655,488.668 Q272.403,488.668 273.0593,488.418 Q273.4499,488.2617 273.8718,487.8242 Q274.1374,487.5586 274.278,487.4805 Q274.4343,487.4023 274.6374,487.4023 Q274.9655,487.4023 275.2155,487.668 Q275.4812,487.918 275.4812,488.2617 Q275.4812,488.6055 275.1374,489.0117 Q274.6374,489.5898 273.8405,489.918 Q272.7624,490.3711 271.4655,490.3711 Q269.9499,490.3711 268.7468,489.7461 Q267.7624,489.2461 267.0749,488.1836 Q266.3874,487.1055 266.3874,485.8242 L266.3874,484.668 Q266.3874,483.3398 266.9968,482.1992 Q267.6218,481.043 268.7155,480.4336 Q269.8093,479.8086 271.0437,479.8086 Q271.778,479.8086 272.4187,479.9805 Q273.0749,480.1367 273.6218,480.4961 Z " fill="#000000"/><text fill="#000000" font-family="sans-serif" font-size="14" lengthAdjust="spacing" textLength="80.917" x="289.1575" y="490.418">VirtualServer</text><line style="stroke:#181818;stroke-width:0.5;" x1="237.5" x2="391.4307" y1="500.6211" y2="500.6211"/><ellipse cx="247.5" cy="515.4316" fill="none" rx="3" ry="3" style="stroke:#038048;stroke-width:1.0;"/><text fill="#000000" font-family="sans-serif" font-size="14" lengthAdjust="spacing" textLength="95.7168" x="256.5" y="519.7285">VS_ID : Integer</text><ellipse cx="247.5" cy="534.0527" fill="none" rx="3" ry="3" style="stroke:#038048;stroke-width:1.0;"/><text fill="#000000" font-family="sans-serif" font-size="14" lengthAdjust="spacing" textLength="115.1514" x="256.5" y="538.3496">VS_NAME : String</text><ellipse cx="247.5" cy="552.6738" fill="none" rx="3" ry="3" style="stroke:#038048;stroke-width:1.0;"/><text fill="#000000" font-family="sans-serif" font-size="14" lengthAdjust="spacing" textLength="113.5996" x="256.5" y="556.9707">VS_DESC : String</text><ellipse cx="247.5" cy="571.2949" fill="none" rx="3" ry="3" style="stroke:#038048;stroke-width:1.0;"/><text fill="#000000" font-family="sans-serif" font-size="14" lengthAdjust="spacing" textLength="129.9307" x="256.5" y="575.5918">VS_STATUS : String</text><ellipse cx="247.5" cy="589.916" fill="none" rx="3" ry="3" style="stroke:#038048;stroke-width:1.0;"/><text fill="#000000" font-family="sans-serif" font-size="14" lengthAdjust="spacing" textLength="125.3096" x="256.5" y="594.2129">isRunning : Boolean</text><ellipse cx="247.5" cy="608.5371" fill="none" rx="3" ry="3" style="stroke:#038048;stroke-width:1.0;"/><text fill="#000000" font-family="sans-serif" font-size="14" lengthAdjust="spacing" textLength="118.2822" x="256.5" y="612.834">VS_TYPE : Integer</text><ellipse cx="247.5" cy="627.1582" fill="none" rx="3" ry="3" style="stroke:#038048;stroke-width:1.0;"/><text fill="#000000" font-family="sans-serif" font-size="14" lengthAdjust="spacing" textLength="84.0273" x="256.5" y="631.4551">DTR : Integer</text><line style="stroke:#181818;stroke-width:0.5;" x1="237.5" x2="391.4307" y1="638.9688" y2="638.9688"/></g><!--class VirtualServerTemplate--><g id="elem_VirtualServerTemplate"><rect codeLine="19" fill="#F1F1F1" height="159.7266" id="VirtualServerTemplate" rx="2.5" ry="2.5" style="stroke:#181818;stroke-width:0.5;" width="193.3096" x="51" y="229.6211"/><ellipse cx="75.9154" cy="245.6211" fill="#ADD1B2" rx="11" ry="11" style="stroke:#181818;stroke-width:1.0;"/><path d="M78.681,241.4961 Q78.8373,241.2773 79.0248,241.168 Q79.2123,241.0586 79.431,241.0586 Q79.806,241.0586 80.0404,241.3242 Q80.2748,241.5742 80.2748,242.1836 L80.2748,243.6367 Q80.2748,244.2461 80.0404,244.5117 Q79.806,244.7773 79.431,244.7773 Q79.0873,244.7773 78.8841,244.5742 Q78.681,244.3867 78.5716,243.8711 Q78.5248,243.5117 78.3373,243.3242 Q78.0091,242.9492 77.3998,242.7305 Q76.7904,242.5117 76.1654,242.5117 Q75.3998,242.5117 74.7591,242.8398 Q74.1341,243.168 73.6341,243.918 Q73.1498,244.668 73.1498,245.6992 L73.1498,246.793 Q73.1498,248.0273 74.0404,248.8555 Q74.931,249.668 76.5248,249.668 Q77.4623,249.668 78.1185,249.418 Q78.5091,249.2617 78.931,248.8242 Q79.1966,248.5586 79.3373,248.4805 Q79.4935,248.4023 79.6966,248.4023 Q80.0248,248.4023 80.2748,248.668 Q80.5404,248.918 80.5404,249.2617 Q80.5404,249.6055 80.1966,250.0117 Q79.6966,250.5898 78.8998,250.918 Q77.8216,251.3711 76.5248,251.3711 Q75.0091,251.3711 73.806,250.7461 Q72.8216,250.2461 72.1341,249.1836 Q71.4466,248.1055 71.4466,246.8242 L71.4466,245.668 Q71.4466,244.3398 72.056,243.1992 Q72.681,242.043 73.7748,241.4336 Q74.8685,240.8086 76.1029,240.8086 Q76.8373,240.8086 77.4779,240.9805 Q78.1341,241.1367 78.681,241.4961 Z " fill="#000000"/><text fill="#000000" font-family="sans-serif" font-size="14" lengthAdjust="spacing" textLength="139.2754" x="92.1188" y="251.418">VirtualServerTemplate</text><line style="stroke:#181818;stroke-width:0.5;" x1="52" x2="243.3096" y1="261.6211" y2="261.6211"/><ellipse cx="62" cy="276.4316" fill="none" rx="3" ry="3" style="stroke:#038048;stroke-width:1.0;"/><text fill="#000000" font-family="sans-serif" font-size="14" lengthAdjust="spacing" textLength="95.7168" x="71" y="280.7285">VS_ID : Integer</text><ellipse cx="62" cy="295.0527" fill="none" rx="3" ry="3" style="stroke:#038048;stroke-width:1.0;"/><text fill="#000000" font-family="sans-serif" font-size="14" lengthAdjust="spacing" textLength="123.7031" x="71" y="299.3496">VST_NAME : String</text><ellipse cx="62" cy="313.6738" fill="none" rx="3" ry="3" style="stroke:#038048;stroke-width:1.0;"/><text fill="#000000" font-family="sans-serif" font-size="14" lengthAdjust="spacing" textLength="122.1514" x="71" y="317.9707">VST_DESC : String</text><ellipse cx="62" cy="332.2949" fill="none" rx="3" ry="3" style="stroke:#038048;stroke-width:1.0;"/><text fill="#000000" font-family="sans-serif" font-size="14" lengthAdjust="spacing" textLength="129.1582" x="71" y="336.5918">VST_COST : Integer</text><ellipse cx="62" cy="350.916" fill="none" rx="3" ry="3" style="stroke:#038048;stroke-width:1.0;"/><text fill="#000000" font-family="sans-serif" font-size="14" lengthAdjust="spacing" textLength="167.3096" x="71" y="355.2129">VST_DISABLED : Boolean</text><ellipse cx="62" cy="369.5371" fill="none" rx="3" ry="3" style="stroke:#038048;stroke-width:1.0;"/><text fill="#000000" font-family="sans-serif" font-size="14" lengthAdjust="spacing" textLength="118.2822" x="71" y="373.834">VS_TYPE : Integer</text><line style="stroke:#181818;stroke-width:0.5;" x1="52" x2="243.3096" y1="381.3477" y2="381.3477"/></g><!--class Node--><g id="elem_Node"><rect codeLine="28" fill="#F1F1F1" height="85.2422" id="Node" rx="2.5" ry="2.5" style="stroke:#181818;stroke-width:0.5;" width="174.6338" x="461" y="753.6211"/><ellipse cx="527.3325" cy="769.6211" fill="#ADD1B2" rx="11" ry="11" style="stroke:#181818;stroke-width:1.0;"/><path d="M530.0981,765.4961 Q530.2544,765.2773 530.4419,765.168 Q530.6294,765.0586 530.8481,765.0586 Q531.2231,765.0586 531.4575,765.3242 Q531.6919,765.5742 531.6919,766.1836 L531.6919,767.6367 Q531.6919,768.2461 531.4575,768.5117 Q531.2231,768.7773 530.8481,768.7773 Q530.5044,768.7773 530.3013,768.5742 Q530.0981,768.3867 529.9888,767.8711 Q529.9419,767.5117 529.7544,767.3242 Q529.4263,766.9492 528.8169,766.7305 Q528.2075,766.5117 527.5825,766.5117 Q526.8169,766.5117 526.1763,766.8398 Q525.5513,767.168 525.0513,767.918 Q524.5669,768.668 524.5669,769.6992 L524.5669,770.793 Q524.5669,772.0273 525.4575,772.8555 Q526.3481,773.668 527.9419,773.668 Q528.8794,773.668 529.5356,773.418 Q529.9263,773.2617 530.3481,772.8242 Q530.6138,772.5586 530.7544,772.4805 Q530.9106,772.4023 531.1138,772.4023 Q531.4419,772.4023 531.6919,772.668 Q531.9575,772.918 531.9575,773.2617 Q531.9575,773.6055 531.6138,774.0117 Q531.1138,774.5898 530.3169,774.918 Q529.2388,775.3711 527.9419,775.3711 Q526.4263,775.3711 525.2231,774.7461 Q524.2388,774.2461 523.5513,773.1836 Q522.8638,772.1055 522.8638,770.8242 L522.8638,769.668 Q522.8638,768.3398 523.4731,767.1992 Q524.0981,766.043 525.1919,765.4336 Q526.2856,764.8086 527.52,764.8086 Q528.2544,764.8086 528.895,764.9805 Q529.5513,765.1367 530.0981,765.4961 Z " fill="#000000"/><text fill="#000000" font-family="sans-serif" font-size="14" lengthAdjust="spacing" textLength="33.4688" x="547.8325" y="775.418">Node</text><line style="stroke:#181818;stroke-width:0.5;" x1="462" x2="634.6338" y1="785.6211" y2="785.6211"/><ellipse cx="472" cy="800.4316" fill="none" rx="3" ry="3" style="stroke:#038048;stroke-width:1.0;"/><text fill="#000000" font-family="sans-serif" font-size="14" lengthAdjust="spacing" textLength="110.4961" x="481" y="804.7285">ipAddress : String</text><ellipse cx="472" cy="819.0527" fill="none" rx="3" ry="3" style="stroke:#038048;stroke-width:1.0;"/><text fill="#000000" font-family="sans-serif" font-size="14" lengthAdjust="spacing" textLength="148.6338" x="481" y="823.3496">supportedTypes : String</text><line style="stroke:#181818;stroke-width:0.5;" x1="462" x2="634.6338" y1="830.8633" y2="830.8633"/></g><!--class Cluster--><g id="elem_Cluster"><rect codeLine="33" fill="#F1F1F1" height="66.6211" id="Cluster" rx="2.5" ry="2.5" style="stroke:#181818;stroke-width:0.5;" width="109.2617" x="494" y="524.1211"/><ellipse cx="523.8126" cy="540.1211" fill="#ADD1B2" rx="11" ry="11" style="stroke:#181818;stroke-width:1.0;"/><path d="M526.5783,535.9961 Q526.7345,535.7773 526.922,535.668 Q527.1095,535.5586 527.3283,535.5586 Q527.7033,535.5586 527.9376,535.8242 Q528.172,536.0742 528.172,536.6836 L528.172,538.1367 Q528.172,538.7461 527.9376,539.0117 Q527.7033,539.2773 527.3283,539.2773 Q526.9845,539.2773 526.7814,539.0742 Q526.5783,538.8867 526.4689,538.3711 Q526.422,538.0117 526.2345,537.8242 Q525.9064,537.4492 525.297,537.2305 Q524.6876,537.0117 524.0626,537.0117 Q523.297,537.0117 522.6564,537.3398 Q522.0314,537.668 521.5314,538.418 Q521.047,539.168 521.047,540.1992 L521.047,541.293 Q521.047,542.5273 521.9376,543.3555 Q522.8283,544.168 524.422,544.168 Q525.3595,544.168 526.0158,543.918 Q526.4064,543.7617 526.8283,543.3242 Q527.0939,543.0586 527.2345,542.9805 Q527.3908,542.9023 527.5939,542.9023 Q527.922,542.9023 528.172,543.168 Q528.4376,543.418 528.4376,543.7617 Q528.4376,544.1055 528.0939,544.5117 Q527.5939,545.0898 526.797,545.418 Q525.7189,545.8711 524.422,545.8711 Q522.9064,545.8711 521.7033,545.2461 Q520.7189,544.7461 520.0314,543.6836 Q519.3439,542.6055 519.3439,541.3242 L519.3439,540.168 Q519.3439,538.8398 519.9533,537.6992 Q520.5783,536.543 521.672,535.9336 Q522.7658,535.3086 524.0001,535.3086 Q524.7345,535.3086 525.3751,535.4805 Q526.0314,535.6367 526.5783,535.9961 Z " fill="#000000"/><text fill="#000000" font-family="sans-serif" font-size="14" lengthAdjust="spacing" textLength="44.3447" x="541.1043" y="545.918">Cluster</text><line style="stroke:#181818;stroke-width:0.5;" x1="495" x2="602.2617" y1="556.1211" y2="556.1211"/><ellipse cx="505" cy="570.9316" fill="none" rx="3" ry="3" style="stroke:#038048;stroke-width:1.0;"/><text fill="#000000" font-family="sans-serif" font-size="14" lengthAdjust="spacing" textLength="83.2617" x="514" y="575.2285">name : String</text><line style="stroke:#181818;stroke-width:0.5;" x1="495" x2="602.2617" y1="582.7422" y2="582.7422"/></g><!--class NetworkInterface--><g id="elem_NetworkInterface"><rect codeLine="37" fill="#F1F1F1" height="122.4844" id="NetworkInterface" rx="2.5" ry="2.5" style="stroke:#181818;stroke-width:0.5;" width="160.6064" x="7" y="735.1211"/><ellipse cx="32.2538" cy="751.1211" fill="#ADD1B2" rx="11" ry="11" style="stroke:#181818;stroke-width:1.0;"/><path d="M35.0194,746.9961 Q35.1756,746.7773 35.3631,746.668 Q35.5506,746.5586 35.7694,746.5586 Q36.1444,746.5586 36.3788,746.8242 Q36.6131,747.0742 36.6131,747.6836 L36.6131,749.1367 Q36.6131,749.7461 36.3788,750.0117 Q36.1444,750.2773 35.7694,750.2773 Q35.4256,750.2773 35.2225,750.0742 Q35.0194,749.8867 34.91,749.3711 Q34.8631,749.0117 34.6756,748.8242 Q34.3475,748.4492 33.7381,748.2305 Q33.1288,748.0117 32.5038,748.0117 Q31.7381,748.0117 31.0975,748.3398 Q30.4725,748.668 29.9725,749.418 Q29.4881,750.168 29.4881,751.1992 L29.4881,752.293 Q29.4881,753.5273 30.3788,754.3555 Q31.2694,755.168 32.8631,755.168 Q33.8006,755.168 34.4569,754.918 Q34.8475,754.7617 35.2694,754.3242 Q35.535,754.0586 35.6756,753.9805 Q35.8319,753.9023 36.035,753.9023 Q36.3631,753.9023 36.6131,754.168 Q36.8788,754.418 36.8788,754.7617 Q36.8788,755.1055 36.535,755.5117 Q36.035,756.0898 35.2381,756.418 Q34.16,756.8711 32.8631,756.8711 Q31.3475,756.8711 30.1444,756.2461 Q29.16,755.7461 28.4725,754.6836 Q27.785,753.6055 27.785,752.3242 L27.785,751.168 Q27.785,749.8398 28.3944,748.6992 Q29.0194,747.543 30.1131,746.9336 Q31.2069,746.3086 32.4413,746.3086 Q33.1756,746.3086 33.8163,746.4805 Q34.4725,746.6367 35.0194,746.9961 Z " fill="#000000"/><text fill="#000000" font-family="sans-serif" font-size="14" lengthAdjust="spacing" textLength="105.8203" x="48.5324" y="756.918">NetworkInterface</text><line style="stroke:#181818;stroke-width:0.5;" x1="8" x2="166.6064" y1="767.1211" y2="767.1211"/><ellipse cx="18" cy="781.9316" fill="none" rx="3" ry="3" style="stroke:#038048;stroke-width:1.0;"/><text fill="#000000" font-family="sans-serif" font-size="14" lengthAdjust="spacing" textLength="73.9238" x="27" y="786.2285">ipv4 : String</text><ellipse cx="18" cy="800.5527" fill="none" rx="3" ry="3" style="stroke:#038048;stroke-width:1.0;"/><text fill="#000000" font-family="sans-serif" font-size="14" lengthAdjust="spacing" textLength="73.9238" x="27" y="804.8496">ipv6 : String</text><ellipse cx="18" cy="819.1738" fill="none" rx="3" ry="3" style="stroke:#038048;stroke-width:1.0;"/><text fill="#000000" font-family="sans-serif" font-size="14" lengthAdjust="spacing" textLength="74.6895" x="27" y="823.4707">mac : String</text><ellipse cx="18" cy="837.7949" fill="none" rx="3" ry="3" style="stroke:#038048;stroke-width:1.0;"/><text fill="#000000" font-family="sans-serif" font-size="14" lengthAdjust="spacing" textLength="134.6064" x="27" y="842.0918">networkName : String</text><line style="stroke:#181818;stroke-width:0.5;" x1="8" x2="166.6064" y1="849.6055" y2="849.6055"/></g><!--class CustomAccess--><g id="elem_CustomAccess"><rect codeLine="44" fill="#F1F1F1" height="141.1055" id="CustomAccess" rx="2.5" ry="2.5" style="stroke:#181818;stroke-width:0.5;" width="222.1299" x="203.5" y="725.6211"/><ellipse cx="263.6357" cy="741.6211" fill="#ADD1B2" rx="11" ry="11" style="stroke:#181818;stroke-width:1.0;"/><path d="M266.4014,737.4961 Q266.5576,737.2773 266.7451,737.168 Q266.9326,737.0586 267.1514,737.0586 Q267.5264,737.0586 267.7607,737.3242 Q267.9951,737.5742 267.9951,738.1836 L267.9951,739.6367 Q267.9951,740.2461 267.7607,740.5117 Q267.5264,740.7773 267.1514,740.7773 Q266.8076,740.7773 266.6045,740.5742 Q266.4014,740.3867 266.292,739.8711 Q266.2451,739.5117 266.0576,739.3242 Q265.7295,738.9492 265.1201,738.7305 Q264.5107,738.5117 263.8857,738.5117 Q263.1201,738.5117 262.4795,738.8398 Q261.8545,739.168 261.3545,739.918 Q260.8701,740.668 260.8701,741.6992 L260.8701,742.793 Q260.8701,744.0273 261.7607,744.8555 Q262.6514,745.668 264.2451,745.668 Q265.1826,745.668 265.8389,745.418 Q266.2295,745.2617 266.6514,744.8242 Q266.917,744.5586 267.0576,744.4805 Q267.2139,744.4023 267.417,744.4023 Q267.7451,744.4023 267.9951,744.668 Q268.2607,744.918 268.2607,745.2617 Q268.2607,745.6055 267.917,746.0117 Q267.417,746.5898 266.6201,746.918 Q265.542,747.3711 264.2451,747.3711 Q262.7295,747.3711 261.5264,746.7461 Q260.542,746.2461 259.8545,745.1836 Q259.167,744.1055 259.167,742.8242 L259.167,741.668 Q259.167,740.3398 259.7764,739.1992 Q260.4014,738.043 261.4951,737.4336 Q262.5889,736.8086 263.8232,736.8086 Q264.5576,736.8086 265.1982,736.9805 Q265.8545,737.1367 266.4014,737.4961 Z " fill="#000000"/><text fill="#000000" font-family="sans-serif" font-size="14" lengthAdjust="spacing" textLength="93.3584" x="284.1357" y="747.418">CustomAccess</text><line style="stroke:#181818;stroke-width:0.5;" x1="204.5" x2="424.6299" y1="757.6211" y2="757.6211"/><ellipse cx="214.5" cy="772.4316" fill="none" rx="3" ry="3" style="stroke:#038048;stroke-width:1.0;"/><text fill="#000000" font-family="sans-serif" font-size="14" lengthAdjust="spacing" textLength="66.1514" x="223.5" y="776.7285">id : Integer</text><ellipse cx="214.5" cy="791.0527" fill="none" rx="3" ry="3" style="stroke:#038048;stroke-width:1.0;"/><text fill="#000000" font-family="sans-serif" font-size="14" lengthAdjust="spacing" textLength="115.9443" x="223.5" y="795.3496">description : String</text><ellipse cx="214.5" cy="809.6738" fill="none" rx="3" ry="3" style="stroke:#038048;stroke-width:1.0;"/><text fill="#000000" font-family="sans-serif" font-size="14" lengthAdjust="spacing" textLength="108.1582" x="223.5" y="813.9707">password : String</text><ellipse cx="214.5" cy="828.2949" fill="none" rx="3" ry="3" style="stroke:#038048;stroke-width:1.0;"/><text fill="#000000" font-family="sans-serif" font-size="14" lengthAdjust="spacing" textLength="112.875" x="223.5" y="832.5918">enabled : Boolean</text><ellipse cx="214.5" cy="846.916" fill="none" rx="3" ry="3" style="stroke:#038048;stroke-width:1.0;"/><text fill="#000000" font-family="sans-serif" font-size="14" lengthAdjust="spacing" textLength="196.1299" x="223.5" y="851.2129">canChangePassword : Boolean</text><line style="stroke:#181818;stroke-width:0.5;" x1="204.5" x2="424.6299" y1="858.7266" y2="858.7266"/></g><!--class CommandExecutor--><g id="elem_CommandExecutor"><rect codeLine="52" fill="#F1F1F1" height="66.6211" id="CommandExecutor" rx="2.5" ry="2.5" style="stroke:#181818;stroke-width:0.5;" width="194.0684" x="346.5" y="65.1211"/><ellipse cx="380.5085" cy="81.1211" fill="#ADD1B2" rx="11" ry="11" style="stroke:#181818;stroke-width:1.0;"/><path d="M383.2742,76.9961 Q383.4304,76.7773 383.6179,76.668 Q383.8054,76.5586 384.0242,76.5586 Q384.3992,76.5586 384.6335,76.8242 Q384.8679,77.0742 384.8679,77.6836 L384.8679,79.1367 Q384.8679,79.7461 384.6335,80.0117 Q384.3992,80.2773 384.0242,80.2773 Q383.6804,80.2773 383.4773,80.0742 Q383.2742,79.8867 383.1648,79.3711 Q383.1179,79.0117 382.9304,78.8242 Q382.6023,78.4492 381.9929,78.2305 Q381.3835,78.0117 380.7585,78.0117 Q379.9929,78.0117 379.3523,78.3398 Q378.7273,78.668 378.2273,79.418 Q377.7429,80.168 377.7429,81.1992 L377.7429,82.293 Q377.7429,83.5273 378.6335,84.3555 Q379.5242,85.168 381.1179,85.168 Q382.0554,85.168 382.7117,84.918 Q383.1023,84.7617 383.5242,84.3242 Q383.7898,84.0586 383.9304,83.9805 Q384.0867,83.9023 384.2898,83.9023 Q384.6179,83.9023 384.8679,84.168 Q385.1335,84.418 385.1335,84.7617 Q385.1335,85.1055 384.7898,85.5117 Q384.2898,86.0898 383.4929,86.418 Q382.4148,86.8711 381.1179,86.8711 Q379.6023,86.8711 378.3992,86.2461 Q377.4148,85.7461 376.7273,84.6836 Q376.0398,83.6055 376.0398,82.3242 L376.0398,81.168 Q376.0398,79.8398 376.6492,78.6992 Q377.2742,77.543 378.3679,76.9336 Q379.4617,76.3086 380.696,76.3086 Q381.4304,76.3086 382.071,76.4805 Q382.7273,76.6367 383.2742,76.9961 Z " fill="#000000"/><text fill="#000000" font-family="sans-serif" font-size="14" lengthAdjust="spacing" textLength="119.8271" x="398.7327" y="86.918">CommandExecutor</text><line style="stroke:#181818;stroke-width:0.5;" x1="347.5" x2="539.5684" y1="97.1211" y2="97.1211"/><line style="stroke:#181818;stroke-width:0.5;" x1="347.5" x2="539.5684" y1="105.1211" y2="105.1211"/><ellipse cx="357.5" cy="119.9316" fill="#84BE84" rx="3" ry="3" style="stroke:#038048;stroke-width:1.0;"/><text fill="#000000" font-family="sans-serif" font-size="14" lengthAdjust="spacing" textLength="168.0684" x="366.5" y="124.2285">execute(command : String)</text></g><!--class Script--><g id="elem_Script"><rect codeLine="56" fill="#F1F1F1" height="85.2422" id="Script" rx="2.5" ry="2.5" style="stroke:#181818;stroke-width:0.5;" width="109.2617" x="389" y="267.1211"/><ellipse cx="422.664" cy="283.1211" fill="#ADD1B2" rx="11" ry="11" style="stroke:#181818;stroke-width:1.0;"/><path d="M425.4296,278.9961 Q425.5859,278.7773 425.7734,278.668 Q425.9609,278.5586 426.1796,278.5586 Q426.5546,278.5586 426.789,278.8242 Q427.0234,279.0742 427.0234,279.6836 L427.0234,281.1367 Q427.0234,281.7461 426.789,282.0117 Q426.5546,282.2773 426.1796,282.2773 Q425.8359,282.2773 425.6328,282.0742 Q425.4296,281.8867 425.3203,281.3711 Q425.2734,281.0117 425.0859,280.8242 Q424.7578,280.4492 424.1484,280.2305 Q423.539,280.0117 422.914,280.0117 Q422.1484,280.0117 421.5078,280.3398 Q420.8828,280.668 420.3828,281.418 Q419.8984,282.168 419.8984,283.1992 L419.8984,284.293 Q419.8984,285.5273 420.789,286.3555 Q421.6796,287.168 423.2734,287.168 Q424.2109,287.168 424.8671,286.918 Q425.2578,286.7617 425.6796,286.3242 Q425.9453,286.0586 426.0859,285.9805 Q426.2421,285.9023 426.4453,285.9023 Q426.7734,285.9023 427.0234,286.168 Q427.289,286.418 427.289,286.7617 Q427.289,287.1055 426.9453,287.5117 Q426.4453,288.0898 425.6484,288.418 Q424.5703,288.8711 423.2734,288.8711 Q421.7578,288.8711 420.5546,288.2461 Q419.5703,287.7461 418.8828,286.6836 Q418.1953,285.6055 418.1953,284.3242 L418.1953,283.168 Q418.1953,281.8398 418.8046,280.6992 Q419.4296,279.543 420.5234,278.9336 Q421.6171,278.3086 422.8515,278.3086 Q423.5859,278.3086 424.2265,278.4805 Q424.8828,278.6367 425.4296,278.9961 Z " fill="#000000"/><text fill="#000000" font-family="sans-serif" font-size="14" lengthAdjust="spacing" textLength="35.7861" x="440.8116" y="288.918">Script</text><line style="stroke:#181818;stroke-width:0.5;" x1="390" x2="497.2617" y1="299.1211" y2="299.1211"/><ellipse cx="400" cy="313.9316" fill="none" rx="3" ry="3" style="stroke:#038048;stroke-width:1.0;"/><text fill="#000000" font-family="sans-serif" font-size="14" lengthAdjust="spacing" textLength="83.2617" x="409" y="318.2285">name : String</text><ellipse cx="400" cy="332.5527" fill="none" rx="3" ry="3" style="stroke:#038048;stroke-width:1.0;"/><text fill="#000000" font-family="sans-serif" font-size="14" lengthAdjust="spacing" textLength="75.4893" x="409" y="336.8496">path : String</text><line style="stroke:#181818;stroke-width:0.5;" x1="390" x2="497.2617" y1="344.3633" y2="344.3633"/></g><!--link User to VirtualServer--><g id="link_User_VirtualServer"><path codeLine="66" d="M272.95,150.9611 C280.74,160.0311 287.65,170.0011 292.5,180.6211 C334.23,272.0911 334.3007,383.3346 327.2807,462.3846 " fill="none" id="User-to-VirtualServer" style="stroke:#181818;stroke-width:1.0;"/><polygon fill="#181818" points="326.75,468.3611,331.5304,459.7502,327.1923,463.3807,323.5618,459.0425,326.75,468.3611" style="stroke:#181818;stroke-width:1.0;"/><text fill="#000000" font-family="sans-serif" font-size="13" lengthAdjust="spacing" textLength="37.5781" x="331.5" y="315.1494">possui</text><text fill="#000000" font-family="sans-serif" font-size="13" lengthAdjust="spacing" textLength="7.23" x="273.2801" y="172.4304">1</text><text fill="#000000" font-family="sans-serif" font-size="13" lengthAdjust="spacing" textLength="7.23" x="320.487" y="457.2913">1</text></g><!--link User to VirtualServerTemplate--><g id="link_User_VirtualServerTemplate"><path codeLine="69" d="M185.52,150.8911 C181.49,160.6311 177.61,170.8411 174.5,180.6211 C169.54,196.2011 166.5442,207.2946 162.9142,223.5946 " fill="none" id="User-to-VirtualServerTemplate" style="stroke:#181818;stroke-width:1.0;"/><polygon fill="#181818" points="161.61,229.4511,167.4707,221.5358,162.6969,224.5707,159.662,219.7968,161.61,229.4511" style="stroke:#181818;stroke-width:1.0;"/><text fill="#000000" font-family="sans-serif" font-size="13" lengthAdjust="spacing" textLength="112.709" x="175.5" y="195.6494">utiliza para criar VS</text><text fill="#000000" font-family="sans-serif" font-size="13" lengthAdjust="spacing" textLength="7.23" x="175.1946" y="172.3518">1</text><text fill="#000000" font-family="sans-serif" font-size="13" lengthAdjust="spacing" textLength="7.23" x="155.5844" y="218.3312">1</text></g><!--link VirtualServerTemplate to VirtualServer--><g id="link_VirtualServerTemplate_VirtualServer"><path codeLine="72" d="M201.26,389.8111 C218.23,414.8111 233.7199,437.627 251.0999,463.227 " fill="none" id="VirtualServerTemplate-to-VirtualServer" style="stroke:#181818;stroke-width:1.0;"/><polygon fill="#181818" points="254.47,468.1911,252.7242,458.4982,251.6615,464.0544,246.1054,462.9917,254.47,468.1911" style="stroke:#181818;stroke-width:1.0;"/><text fill="#000000" font-family="sans-serif" font-size="13" lengthAdjust="spacing" textLength="39.0254" x="232.5" y="434.6494">origina</text><text fill="#000000" font-family="sans-serif" font-size="13" lengthAdjust="spacing" textLength="7.23" x="198.5758" y="411.4855">1</text><text fill="#000000" font-family="sans-serif" font-size="13" lengthAdjust="spacing" textLength="7.23" x="242.4194" y="457.4134">1</text></g><!--link VirtualServer to Node--><g id="link_VirtualServer_Node"><path codeLine="75" d="M392.74,637.7011 C431.01,676.3711 471.2901,717.0858 502.9001,749.0358 " fill="none" id="VirtualServer-to-Node" style="stroke:#181818;stroke-width:1.0;"/><polygon fill="#181818" points="507.12,753.3011,503.6337,744.0899,503.6034,749.7467,497.9467,749.7164,507.12,753.3011" style="stroke:#181818;stroke-width:1.0;"/><text fill="#000000" font-family="sans-serif" font-size="13" lengthAdjust="spacing" textLength="67.2026" x="446.5" y="691.6494">executa em</text><text fill="#000000" font-family="sans-serif" font-size="13" lengthAdjust="spacing" textLength="7.23" x="400.5451" y="641.5492">1</text><text fill="#000000" font-family="sans-serif" font-size="13" lengthAdjust="spacing" textLength="7.23" x="493.2934" y="742.4748">1</text></g><!--link Cluster to Node--><g id="link_Cluster_Node"><path codeLine="78" d="M548.5,591.5011 C548.5,633.7711 548.5,701.1911 548.5,747.3611 " fill="none" id="Cluster-to-Node" style="stroke:#181818;stroke-width:1.0;"/><polygon fill="#181818" points="548.5,753.3611,552.5,744.3611,548.5,748.3611,544.5,744.3611,548.5,753.3611" style="stroke:#181818;stroke-width:1.0;"/><text fill="#000000" font-family="sans-serif" font-size="13" lengthAdjust="spacing" textLength="40.479" x="549.5" y="691.6494">agrega</text><text fill="#000000" font-family="sans-serif" font-size="13" lengthAdjust="spacing" textLength="7.23" x="540.8957" y="612.871">1</text><text fill="#000000" font-family="sans-serif" font-size="13" lengthAdjust="spacing" textLength="19.5127" x="528.056" y="742.2237">1..*</text></g><!--reverse link VirtualServer to NetworkInterface--><g id="link_VirtualServer_NetworkInterface"><path codeLine="81" d="M228.0703,648.6684 C198.1903,679.7984 172.98,706.0611 145.33,734.8711 " fill="none" id="VirtualServer-backto-NetworkInterface" style="stroke:#181818;stroke-width:1.0;"/><polygon fill="#181818" points="236.38,640.0111,229.3394,641.5699,228.0703,648.6684,235.1109,647.1096,236.38,640.0111" style="stroke:#181818;stroke-width:1.0;"/><text fill="#000000" font-family="sans-serif" font-size="13" lengthAdjust="spacing" textLength="37.5781" x="202.5" y="691.6494">possui</text><text fill="#000000" font-family="sans-serif" font-size="13" lengthAdjust="spacing" textLength="7.23" x="221.3603" y="644.3102">1</text><text fill="#000000" font-family="sans-serif" font-size="13" lengthAdjust="spacing" textLength="19.5127" x="131.9705" y="723.8234">1..*</text></g><!--reverse link VirtualServer to CustomAccess--><g id="link_VirtualServer_CustomAccess"><path codeLine="84" d="M314.5,658.6811 C314.5,684.6911 314.5,700.7811 314.5,725.4511 " fill="none" id="VirtualServer-backto-CustomAccess" style="stroke:#181818;stroke-width:1.0;"/><polygon fill="#181818" points="314.5,646.6811,310.5,652.6811,314.5,658.6811,318.5,652.6811,314.5,646.6811" style="stroke:#181818;stroke-width:1.0;"/><text fill="#000000" font-family="sans-serif" font-size="13" lengthAdjust="spacing" textLength="70.8208" x="315.5" y="691.6494">disponibiliza</text><text fill="#000000" font-family="sans-serif" font-size="13" lengthAdjust="spacing" textLength="7.23" x="307.2121" y="669.091">1</text><text fill="#000000" font-family="sans-serif" font-size="13" lengthAdjust="spacing" textLength="19.5127" x="294.5401" y="714.3246">1..*</text></g><!--link CommandExecutor to Script--><g id="link_CommandExecutor_Script"><path codeLine="87" d="M443.5,132.2811 C443.5,168.5611 443.5,221.2311 443.5,260.8311 " fill="none" id="CommandExecutor-to-Script" style="stroke:#181818;stroke-width:1.0;"/><polygon fill="#181818" points="443.5,266.8311,447.5,257.8311,443.5,261.8311,439.5,257.8311,443.5,266.8311" style="stroke:#181818;stroke-width:1.0;"/><text fill="#000000" font-family="sans-serif" font-size="13" lengthAdjust="spacing" textLength="37.5781" x="444.5" y="195.6494">invoca</text><text fill="#000000" font-family="sans-serif" font-size="13" lengthAdjust="spacing" textLength="7.23" x="435.891" y="153.8788">1</text><text fill="#000000" font-family="sans-serif" font-size="13" lengthAdjust="spacing" textLength="19.5127" x="423.0645" y="256.0094">1..*</text></g><!--link Script to VirtualServer--><g id="link_Script_VirtualServer"><path codeLine="90" d="M421.62,352.3511 C404.98,384.0811 384.2659,423.5671 363.5259,463.1271 " fill="none" id="Script-to-VirtualServer" style="stroke:#181818;stroke-width:1.0;"/><polygon fill="#181818" points="360.74,468.4411,368.4616,462.3274,363.0616,464.0128,361.3763,458.6128,360.74,468.4411" style="stroke:#181818;stroke-width:1.0;"/><text fill="#000000" font-family="sans-serif" font-size="13" lengthAdjust="spacing" textLength="69.3799" x="384.5" y="434.6494">opera sobre</text><text fill="#000000" font-family="sans-serif" font-size="13" lengthAdjust="spacing" textLength="19.5127" x="397.6388" y="374.5481">1..*</text><text fill="#000000" font-family="sans-serif" font-size="13" lengthAdjust="spacing" textLength="7.23" x="357.2918" y="457.3779">1</text></g><!--SRC=[bLHBRjim4Dth50DlyYaSe43HHO0MK6mj0YHk42a1kWeOSUeGaKYMf9n-q7LFq0C4NHHTz0BTwc8TKH-7YXEZtiXyd7dlQJvomXK8fufZeO0Zp5LP_v52HL5UC6lXmgA1hn70Yuh-ILOY74BgZ93B1XGsvgMGX1qfLI2J3PWRvC8HTYmTBj54ttgsIs5SnOeKpQgdlKolZkSFObje4PycWH1XyoITZR4qYxEBT6Jfl9AI3g4f2ixUdoMXqZmxtsepmr8NpE4pThDDVhDDXhEhsRiqUvm_FqxZevDalitpO7517MiT2HrpRf2mXrAsqbePXppxhF71rK0mAohh-YQ4VLsBeBjJvhOHDnzOFWYkNeKLrwlN0L2oF3ZBbcUnMML6HbGPvtdp3gq23ol4qUP6Q2UK37WrfHCn3q2KxBf0FXf99cStJ2xnR9tINw-DgB9aaYUVCA-Swag3_eIxUNivIEsjyr9lRbCblKTt4xpqpfidVj4Ed2SdSVsz_f6apuHHdDzATIU7KOLsLctaRoOl9p2TllNFSEKEOQALjPMO33Hadi5b2WmqCqwOvYj08xc5QTWAOgoSACGNdyyydI42Bq0yG3ri-AFDwSzQLKOiXMGT5MYaWPOqXWogijs0ZnNrH05QLzy3SsAbGfs0tsSGRTjI1bXwvduJSYLT_Ribjh3BbWQNhFvL_rHxKH-pfZius5ypjh6zJuSbbFNVmWbwHmkYNn_Rb9Q-ZGZDD54VHCV-sFB-T3feZ9SmxE58Jrbeb2mz_qSas44IuC9g9SMrRwpNEMBvBTByzyLhDz96uwKPLQZR3Q8KSgNobgi36Va1gwvDCt1H1tPvJy-4RkR9PqsYVm00]--></g></svg>